# xmcd CD database file
#
# Track frame offsets:
#	150
#	8351
#	25372
#	43746
#	67411
#	84677
#	103000
#	123673
#	139848
#	165812
#	192847
#	214100
#	229022
#	238514
#
# Disc length: 3409 seconds
#
# Revision: 0
# Processed by: cddbd v1.5.2PL0 Copyright (c) Steve Scherf et al.
# Submitted via: CD2WAV32(JP) R3.22
#
DISCID=bb0d4f0e
DTITLE=吉井和哉 - The Apples
DYEAR=2011
DGENRE=J-Pop
TTITLE0=THE APPLES
TTITLE1=ACIDWOMAN
TTITLE2=VS
TTITLE3=おじぎ草
TTITLE4=イースター
TTITLE5=CHAO CHAO
TTITLE6=ロンサムジョージ
TTITLE7=MUSIC
TTITLE8=クランベリー
TTITLE9=GOODBYE LONELY
TTITLE10=LOVE ＆ PEACE
TTITLE11=プリーズ プリーズ プリーズ
TTITLE12=HIGH ＆ LOW
TTITLE13=FLOWER
EXTD=
EXTT0=
EXTT1=
EXTT2=
EXTT3=
EXTT4=
EXTT5=
EXTT6=
EXTT7=
EXTT8=
EXTT9=
EXTT10=
EXTT11=
EXTT12=
EXTT13=
PLAYORDER=
